<?xml version="1.0" standalone="no"?>
<!DOCTYPE svg PUBLIC "-//W3C//DTD SVG 20010904//EN"
 "http://www.w3.org/TR/2001/REC-SVG-20010904/DTD/svg10.dtd">
<svg version="1.0" xmlns="http://www.w3.org/2000/svg"
 width="993.000000pt" height="935.000000pt" viewBox="0 0 993.000000 935.000000"
 preserveAspectRatio="xMidYMid meet">
<metadata>
Created by potrace 1.16, written by Peter Selinger 2001-2019
</metadata>
<g transform="translate(0.000000,935.000000) scale(0.100000,-0.100000)"
fill="#000000" stroke="none">
<path d="M4970 9270 c-166 -20 -289 -71 -384 -161 -34 -31 -72 -79 -86 -106
-14 -26 -39 -66 -57 -88 -28 -36 -32 -47 -30 -95 2 -53 1 -55 -28 -63 -81 -25
-162 -64 -204 -100 -182 -156 -198 -446 -42 -754 50 -98 81 -189 116 -343 56
-241 69 -290 77 -290 4 0 5 6 2 14 -8 20 30 42 91 56 28 6 57 13 67 16 15 4
16 34 17 309 1 168 6 351 11 407 14 143 49 210 117 224 25 5 35 1 57 -22 14
-16 26 -33 26 -39 0 -22 138 -145 215 -192 149 -92 231 -121 364 -133 243 -20
441 20 755 154 139 59 286 100 329 91 54 -12 121 -54 150 -95 26 -37 27 -42
27 -172 0 -74 3 -223 7 -331 l6 -196 76 -18 c45 -10 84 -26 96 -38 20 -21 70
-55 80 -55 3 0 5 7 5 16 0 9 21 48 46 87 84 127 112 206 139 397 23 166 16
447 -15 545 -5 17 -16 79 -25 139 -12 80 -25 129 -51 185 -19 41 -42 107 -51
146 -19 87 -74 209 -102 227 -12 7 -21 18 -21 25 0 18 -102 90 -174 122 -78
36 -149 51 -231 51 -139 0 -233 -37 -412 -164 -68 -47 -130 -86 -139 -86 -8 0
-60 41 -115 90 -176 160 -298 221 -487 241 -98 10 -129 10 -222 -1z m331 -54
c154 -42 218 -81 379 -229 47 -43 58 -58 47 -63 -26 -10 -126 16 -231 59 -66
26 -101 36 -104 29 -2 -7 -8 -12 -13 -12 -4 0 -6 7 -3 14 7 20 -38 38 -195 82
-151 41 -225 50 -318 35 -91 -14 -157 -38 -255 -95 -90 -51 -101 -41 -30 29
68 68 117 99 204 129 102 35 160 43 308 45 103 1 140 -3 211 -23z m1288 -118
c36 -17 84 -49 107 -70 41 -38 114 -148 114 -172 0 -6 4 -16 9 -21 10 -12 23
-75 15 -75 -9 0 -59 53 -146 155 -102 118 -172 188 -213 210 l-30 17 40 -7
c22 -3 69 -20 104 -37z m-2251 -411 c-80 -80 -123 -173 -154 -330 -14 -73 -26
-160 -26 -194 0 -35 -3 -63 -8 -63 -11 0 -16 33 -19 140 -4 165 46 316 139
412 25 26 43 48 39 48 -13 0 -110 -112 -128 -149 -77 -153 -90 -367 -35 -560
5 -17 4 -22 -4 -17 -6 4 -26 50 -43 104 -53 163 -51 329 4 444 19 39 129 168
143 168 3 0 24 8 47 19 100 44 107 41 45 -22z"/>
<path d="M4965 7574 c-182 -35 -246 -71 -274 -153 -6 -19 -11 -35 -11 -36 0
-2 12 -6 26 -9 18 -5 49 2 98 23 127 53 273 62 378 25 48 -17 54 -14 60 28 6
41 -28 76 -98 100 -51 17 -144 28 -179 22z"/>
<path d="M5983 7570 c-68 -10 -144 -48 -161 -80 -10 -18 -11 -32 -4 -52 11
-26 11 -26 52 -12 109 38 251 28 388 -27 101 -40 148 -29 118 29 -22 43 -78
88 -138 110 -48 18 -73 23 -178 36 -14 2 -49 0 -77 -4z"/>
<path d="M5451 7343 c-10 -21 -31 -73 -45 -116 -15 -44 -40 -104 -56 -135 -96
-184 -103 -204 -104 -262 -1 -50 3 -62 34 -103 53 -69 81 -82 175 -81 66 0 89
5 131 27 57 29 107 81 102 106 -5 21 -48 17 -65 -6 -17 -22 -88 -53 -139 -60
-47 -6 -114 3 -114 17 0 4 9 6 20 3 14 -4 20 0 20 11 0 18 13 20 39 6 13 -6
24 -5 37 5 15 11 16 15 4 15 -9 1 -6 5 8 10 12 5 22 15 21 22 0 10 -2 10 -6 1
-2 -7 -9 -13 -14 -13 -6 0 -6 8 1 19 13 26 9 71 -7 71 -7 0 -13 5 -13 10 0 14
23 12 39 -2 12 -11 13 -9 6 7 -4 11 -11 39 -15 63 -4 23 -10 46 -15 50 -4 4
-4 -8 0 -27 5 -23 4 -31 -4 -27 -6 4 -11 14 -11 21 0 8 -9 19 -19 25 -27 14
-31 13 -31 -7 0 -13 -3 -14 -12 -5 -9 9 -17 7 -34 -9 -26 -24 -40 -11 -18 17
9 10 12 13 8 5 -5 -9 -3 -12 5 -7 6 4 9 12 5 17 -3 5 -1 15 4 22 15 17 57 132
77 207 9 36 21 75 26 88 24 61 -10 73 -40 15z"/>
<path d="M6561 7298 c-5 -13 -13 -90 -20 -173 -32 -412 -50 -532 -87 -572 -17
-18 -22 -33 -18 -49 7 -26 -69 -204 -114 -269 -16 -22 -36 -61 -45 -86 -21
-55 -78 -124 -173 -207 -87 -76 -132 -101 -145 -81 -5 9 0 22 16 39 30 31 30
36 8 44 -11 5 -23 0 -34 -15 -13 -18 -19 -19 -36 -10 -12 6 -24 22 -27 36 -4
14 -11 25 -16 25 -13 0 -13 -16 0 -41 6 -10 8 -19 5 -19 -10 0 -30 23 -50 58
-11 17 -23 32 -28 32 -5 0 -4 7 3 15 15 18 4 37 -19 33 -16 -3 -71 33 -71 46
0 3 7 6 15 6 20 0 19 13 -3 33 -25 23 -31 21 -43 -10 l-11 -28 -33 39 c-21 23
-40 36 -48 33 -8 -3 -19 -1 -24 4 -6 6 -16 2 -28 -11 -10 -11 -27 -20 -38 -20
-11 0 -29 -7 -39 -16 -16 -16 -18 -16 -24 0 -3 9 -12 16 -19 16 -7 0 -16 6
-18 13 -6 14 -85 -70 -88 -93 0 -8 -4 -4 -8 9 -4 14 -12 26 -19 29 -17 5 -27
-27 -15 -47 8 -13 3 -21 -24 -38 -18 -12 -33 -18 -33 -13 0 6 -7 10 -15 10
-18 0 -20 -26 -2 -33 7 -3 -4 -20 -30 -44 -32 -29 -40 -42 -31 -51 8 -8 8 -15
-2 -27 -32 -38 -98 -2 -225 122 -59 57 -94 103 -133 171 -28 51 -52 98 -52
104 0 6 -6 19 -13 27 -23 26 -114 251 -131 321 -28 118 -44 266 -63 603 -6
108 -9 111 -76 84 l-32 -14 7 -94 c9 -133 9 -249 1 -249 -5 0 -17 7 -27 15
-11 8 -40 15 -64 15 -42 0 -44 1 -38 25 16 64 43 104 94 137 24 16 25 18 7 18
-30 0 -92 -55 -114 -101 -47 -96 -35 -207 30 -290 31 -38 49 -52 85 -61 l45
-12 -2 -156 c-1 -101 2 -164 10 -177 6 -12 11 -51 11 -87 0 -36 4 -66 8 -66 5
0 8 -22 8 -48 0 -33 8 -61 25 -89 13 -23 48 -85 78 -138 68 -118 162 -236 234
-293 44 -35 56 -50 59 -78 2 -19 0 -38 -6 -44 -11 -11 8 -28 69 -60 26 -13 48
-18 60 -14 14 6 16 4 10 -7 -6 -11 -5 -12 6 -1 7 6 19 12 27 12 7 0 20 7 28
15 14 13 13 15 -3 15 -11 0 -28 7 -39 15 -25 19 -40 19 -24 0 7 -8 18 -15 26
-15 7 0 15 -4 18 -9 3 -5 -9 -7 -27 -5 -17 1 -35 3 -39 3 -11 1 -5 41 7 41 13
0 -76 42 -91 43 -6 0 -11 6 -11 13 0 8 19 3 56 -15 238 -119 285 -131 540
-140 134 -4 221 -2 279 6 47 7 89 10 93 7 5 -3 9 0 9 5 0 6 7 11 15 11 9 0 65
21 126 46 197 83 307 170 443 353 75 101 86 123 142 281 18 52 34 89 34 83 0
-7 5 -13 10 -13 6 0 10 13 10 28 0 15 5 33 11 39 9 9 9 23 1 54 -6 24 -8 48
-4 53 4 6 7 49 8 96 1 126 15 295 25 298 5 2 9 17 9 33 0 16 8 38 18 48 9 10
28 35 42 55 48 68 118 73 112 6 -5 -69 -70 -150 -120 -150 -23 0 -46 -25 -37
-40 8 -13 51 -13 78 1 33 17 77 60 93 92 38 72 34 203 -7 277 -23 41 -80 83
-105 78 -13 -2 -6 -10 25 -31 28 -19 41 -33 37 -43 -3 -8 -2 -13 3 -10 10 7
30 -37 33 -74 3 -23 1 -25 -38 -22 -35 3 -47 -2 -76 -27 -19 -17 -39 -27 -43
-23 -5 4 -6 2 -2 -3 3 -6 3 -16 -1 -22 -4 -6 -7 80 -7 190 l0 202 -50 17 c-65
22 -64 22 -74 -4z m-2175 -404 c29 -32 44 -75 44 -131 0 -51 -85 -11 -119 55
-30 60 -35 99 -14 111 26 15 54 4 89 -35z"/>
<path d="M5974 7241 c-17 -10 -36 -32 -42 -48 -39 -114 109 -188 163 -82 44
83 -44 178 -121 130z"/>
<path d="M4963 7235 c-58 -41 -46 -142 21 -170 45 -19 79 -7 106 37 41 65 1
148 -70 148 -19 0 -45 -7 -57 -15z"/>
<path d="M4852 6934 c-22 -26 -23 -26 -44 -8 -20 19 -21 19 -13 -6 8 -29 55
-81 65 -75 5 3 10 -1 13 -8 6 -17 73 -37 120 -37 33 0 40 10 26 40 -1 3 -3 25
-3 49 -1 40 -3 45 -28 48 -20 3 -28 -1 -28 -12 0 -8 -5 -15 -11 -15 -6 0 -9 6
-6 14 4 9 -2 12 -20 10 -14 -1 -27 4 -30 12 -7 20 -15 17 -41 -12z"/>
<path d="M6165 6914 c-22 -8 -51 -13 -63 -11 -20 4 -23 1 -20 -18 4 -18 1 -21
-16 -17 -19 5 -19 4 -7 -11 9 -12 10 -17 2 -17 -9 0 -9 -5 -1 -20 12 -23 48
-26 114 -9 45 11 127 77 125 100 0 10 -2 11 -6 2 -6 -17 -33 -16 -57 2 -23 18
-20 18 -71 -1z"/>
<path d="M6290 6824 c-30 -25 -66 -50 -79 -57 -34 -17 -41 -41 -10 -33 13 3
18 3 12 0 -7 -3 -13 -10 -13 -15 0 -6 4 -8 8 -5 4 2 9 -4 10 -15 1 -10 3 -28
4 -38 1 -11 6 -17 11 -14 4 2 14 -1 22 -7 12 -10 15 -9 15 3 0 9 -6 20 -13 24
-8 4 -16 16 -20 26 -4 11 -3 16 3 12 12 -8 49 12 72 39 18 21 18 21 33 2 8
-11 15 -18 16 -15 6 30 5 56 -1 64 -5 6 -10 24 -12 42 l-3 31 -55 -44z"/>
<path d="M4790 6810 c0 -5 3 -9 8 -9 19 3 23 -2 12 -16 -10 -12 -9 -15 7 -15
21 0 27 -26 11 -47 -6 -7 -7 -20 -4 -29 4 -11 2 -15 -7 -11 -10 4 -13 -2 -9
-19 3 -19 7 -22 18 -13 11 9 14 7 14 -10 0 -14 6 -21 18 -21 10 0 24 -6 31
-12 11 -11 12 -10 6 0 -4 9 0 15 13 19 11 3 26 18 33 34 6 17 20 36 30 43 18
12 18 14 2 28 -10 8 -31 18 -48 22 -29 7 -29 7 -10 -9 20 -16 20 -16 -2 -12
-13 3 -23 1 -23 -4 0 -5 -5 -9 -11 -9 -6 0 -9 7 -5 15 3 10 -1 15 -12 16 -14
0 -14 2 3 9 18 7 16 9 -13 15 -18 4 -30 10 -27 13 6 6 -14 32 -26 32 -5 0 -9
-4 -9 -10z"/>
<path d="M5130 6655 c0 -39 61 -146 118 -206 85 -91 145 -122 247 -127 112 -6
174 19 266 106 67 63 139 169 139 206 0 22 -26 32 -45 16 -8 -6 -28 -36 -45
-67 -46 -81 -105 -139 -176 -174 -58 -29 -69 -31 -147 -28 -74 4 -89 8 -128
34 -70 48 -152 136 -184 197 -30 58 -45 72 -45 43z"/>
<path d="M1535 5436 c-113 -42 -231 -150 -287 -261 -57 -113 -100 -267 -92
-329 9 -77 14 -86 45 -86 29 0 41 22 19 35 -17 10 -11 116 11 195 51 187 160
332 302 403 40 20 83 37 95 37 11 0 24 5 27 10 8 14 -82 11 -120 -4z"/>
<path d="M4230 4961 c-105 -29 -169 -47 -265 -76 -49 -14 -128 -38 -175 -51
-145 -43 -413 -135 -460 -159 -25 -12 -56 -26 -70 -30 -47 -14 -345 -158 -428
-207 -113 -67 -284 -199 -442 -343 -72 -66 -150 -136 -172 -155 -22 -19 -120
-104 -217 -189 -97 -85 -188 -163 -204 -174 -34 -26 -34 -43 3 -86 l29 -34
163 148 c155 142 240 221 408 380 96 92 271 242 429 368 115 92 126 98 138 81
14 -19 17 -145 5 -176 -4 -9 -52 -53 -107 -98 -55 -45 -110 -93 -123 -106 -13
-13 -29 -24 -37 -24 -7 0 -15 -4 -17 -10 -1 -5 -77 -85 -168 -177 -142 -145
-454 -472 -529 -555 -21 -24 -22 -29 -10 -47 8 -10 122 -167 254 -347 213
-291 304 -416 382 -528 12 -17 35 -48 50 -68 15 -21 60 -83 98 -138 39 -55 76
-100 83 -100 8 0 43 29 78 65 45 44 67 60 70 50 3 -8 1 -184 -5 -392 -6 -208
-13 -565 -16 -793 -5 -374 -14 -628 -31 -897 l-6 -93 1311 0 c721 0 1311 2
1311 4 0 2 -7 20 -15 39 -8 20 -15 57 -15 83 l0 46 62 -57 c90 -80 154 -115
214 -115 l49 1 -70 37 c-96 51 -212 129 -230 155 -13 18 -17 19 -24 8 -13 -20
-31 18 -31 66 0 38 29 115 48 127 5 3 17 -6 26 -20 28 -41 206 -149 439 -265
l219 -109 76 0 77 1 -110 48 c-171 74 -430 203 -536 265 -60 35 -118 79 -153
115 -49 52 -56 65 -56 99 0 67 11 99 47 141 19 22 37 56 40 75 3 20 20 51 39
72 33 36 35 36 96 32 49 -3 87 -15 173 -55 61 -28 166 -69 235 -91 69 -21 195
-65 280 -97 189 -69 305 -105 341 -105 l27 0 7 157 c7 178 21 328 30 343 18
30 83 2 157 -68 27 -26 39 -32 42 -21 35 108 63 259 76 419 10 119 34 870 28
876 -3 2 -96 4 -830 18 l-338 6 0 -55 c0 -81 38 -478 61 -633 24 -167 24 -162
-6 -162 -28 0 -27 -4 -49 155 -29 208 -53 482 -61 696 -5 158 -3 162 80 173
83 11 1197 7 1210 -4 13 -11 13 -1 -5 -460 -17 -416 -31 -613 -56 -788 -14
-98 -54 -254 -74 -292 -7 -13 -4 -35 10 -74 10 -31 26 -107 35 -169 30 -208
34 -228 55 -257 12 -17 52 -44 93 -65 124 -60 240 -124 262 -145 11 -10 36
-26 56 -34 19 -8 72 -38 117 -65 48 -30 93 -51 109 -51 25 0 20 5 -37 42 -36
23 -94 54 -130 68 l-65 27 0 174 c0 96 2 362 4 591 l3 417 72 20 c39 11 148
45 241 76 260 85 326 105 341 105 8 0 22 4 32 10 16 9 258 80 347 102 22 6 55
16 73 24 18 8 64 21 102 30 38 8 73 20 76 25 8 14 -47 279 -58 279 -5 0 -48
-16 -96 -36 -377 -157 -827 -333 -967 -378 -39 -12 -76 -21 -83 -18 -25 8 -10
24 46 48 85 38 88 39 207 84 126 48 525 206 570 226 17 7 77 31 134 54 131 52
181 77 181 93 -1 49 -116 553 -156 680 -30 97 -87 231 -171 407 -75 156 -105
208 -222 384 -47 70 -94 140 -103 155 -10 14 -63 75 -119 134 l-101 108 22 54
c29 72 42 82 77 60 46 -29 274 -264 355 -365 42 -52 95 -124 118 -160 48 -74
162 -307 238 -485 53 -124 175 -491 178 -535 2 -31 80 -339 88 -347 13 -13 36
8 36 33 0 29 -81 373 -131 559 -35 130 -81 274 -116 365 -210 552 -396 799
-809 1072 -104 69 -209 137 -234 152 -25 15 -79 48 -120 73 -41 25 -127 76
-190 113 -63 37 -146 87 -185 110 -38 24 -144 81 -234 127 -136 70 -166 82
-177 71 -7 -7 -10 -18 -6 -24 4 -7 88 -56 187 -109 99 -54 194 -108 210 -120
17 -12 80 -50 140 -85 122 -71 436 -271 532 -340 l63 -44 -31 -30 c-17 -17
-42 -52 -55 -78 -13 -26 -26 -48 -29 -48 -2 0 -59 39 -127 86 -217 153 -349
239 -548 356 -218 128 -433 248 -445 248 -4 0 -50 -44 -104 -97 -111 -113
-115 -117 -221 -183 -242 -152 -511 -228 -806 -229 -173 -1 -393 37 -519 90
-27 12 -72 31 -100 43 -203 86 -421 265 -533 438 -29 45 -43 58 -62 58 -14 0
-92 -22 -175 -49 -193 -63 -479 -154 -574 -181 -71 -21 -136 -46 -311 -120
-170 -71 -319 -124 -321 -112 0 4 -1 45 -2 92 l-1 84 30 8 c16 3 79 25 139 48
61 24 207 76 325 117 118 41 312 109 430 150 118 42 256 88 305 102 50 15 90
33 89 39 -1 7 -2 19 -2 27 -2 19 -21 18 -102 -4z"/>
<path d="M4546 4805 c-27 -8 -53 -18 -58 -23 -13 -13 52 -109 127 -191 125
-135 348 -274 536 -335 164 -52 272 -69 459 -70 145 0 196 4 295 23 268 53
555 206 727 387 29 31 53 61 53 67 0 6 -36 30 -80 54 l-80 42 -41 -52 c-43
-56 -161 -150 -234 -187 -25 -12 -56 -30 -70 -40 -22 -16 -54 -29 -205 -87
-22 -8 -83 -25 -135 -36 -126 -28 -422 -29 -515 -2 -33 9 -74 20 -90 24 -121
31 -304 127 -395 208 -19 17 -46 40 -60 51 -14 11 -54 56 -90 101 -36 44 -72
80 -80 80 -8 0 -37 -7 -64 -14z"/>
<path d="M775 4462 c-28 -20 -71 -177 -52 -189 6 -4 74 -8 150 -10 l139 -3 -8
22 c-5 13 -8 60 -7 106 l0 82 -106 0 c-58 0 -111 -4 -116 -8z"/>
<path d="M1363 4463 c-10 -7 -10 -18 -2 -48 10 -36 9 -71 -7 -136 l-6 -25 96
-3 c92 -2 96 -1 100 21 11 52 17 176 9 181 -16 10 -178 18 -190 10z"/>
<path d="M1652 3447 l-52 -52 26 -30 c14 -17 29 -36 34 -44 6 -12 21 -3 69 38
34 30 60 56 59 60 -15 32 -56 81 -68 81 -9 0 -39 -24 -68 -53z"/>
<path d="M1466 3353 c-15 -168 -46 -714 -67 -1173 -6 -135 -14 -294 -19 -355
-5 -60 -9 -170 -9 -243 -1 -114 1 -134 15 -139 31 -12 39 21 42 153 1 71 7
185 12 254 11 130 37 876 47 1323 4 168 2 257 -4 257 -6 0 -13 -35 -17 -77z"/>
<path d="M1871 3156 l-64 -65 26 -38 c14 -21 52 -73 84 -115 32 -42 78 -107
103 -143 25 -36 68 -97 95 -135 99 -136 208 -286 257 -355 27 -38 53 -72 56
-75 4 -3 20 -25 36 -50 16 -25 46 -66 68 -91 21 -26 38 -51 38 -55 1 -5 25
-35 55 -68 62 -67 57 -68 149 16 l49 44 -34 48 c-19 26 -43 59 -54 74 -202
269 -629 843 -744 1000 -29 39 -54 72 -55 72 -1 0 -30 -29 -65 -64z"/>
<path d="M5965 2313 c4 -32 8 -59 9 -59 0 -1 264 -3 586 -5 l585 -4 5 53 6 52
-41 1 c-156 4 -356 8 -728 14 l-429 6 7 -58z"/>
<path d="M9046 2097 c-17 -13 -16 -22 24 -185 27 -106 47 -171 54 -169 6 2 11
21 10 43 -1 45 -53 305 -63 317 -4 4 -15 1 -25 -6z"/>
<path d="M5629 733 c-6 -41 33 -107 88 -150 111 -87 450 -284 563 -327 36 -13
89 -36 119 -51 58 -28 84 -29 89 -3 4 20 -55 56 -152 92 -130 49 -512 263
-603 339 -26 21 -58 54 -71 73 -23 34 -31 41 -33 27z"/>
</g>
</svg>
