<?xml version="1.0" standalone="no"?>
<!DOCTYPE svg PUBLIC "-//W3C//DTD SVG 20010904//EN"
 "http://www.w3.org/TR/2001/REC-SVG-20010904/DTD/svg10.dtd">
<svg version="1.0" xmlns="http://www.w3.org/2000/svg"
 width="1207.000000pt" height="331.000000pt" viewBox="0 0 1207.000000 331.000000"
 preserveAspectRatio="xMidYMid meet">
<metadata>
Created by potrace 1.16, written by Peter Selinger 2001-2019
</metadata>
<g transform="translate(0.000000,331.000000) scale(0.100000,-0.100000)"
fill="#000000" stroke="none">
<path d="M5500 3173 c-357 -75 -665 -641 -789 -1449 -25 -162 -37 -274 -56
-540 -17 -233 -27 -281 -86 -422 -64 -154 -161 -282 -215 -282 -25 0 -73 52
-103 111 -30 61 -47 125 -54 214 l-4 51 56 26 c83 40 126 81 163 155 30 61 33
77 36 173 3 95 1 109 -20 150 -15 28 -43 58 -74 79 -46 31 -53 33 -119 29
-164 -11 -284 -133 -345 -353 -12 -44 -31 -96 -41 -116 -17 -33 -71 -89 -87
-89 -4 0 -23 -4 -43 -9 l-35 -8 0 116 c1 140 -17 204 -70 251 -87 76 -170 -5
-168 -165 0 -94 16 -136 73 -198 23 -24 41 -51 41 -59 0 -55 -136 -248 -174
-248 -43 0 -70 90 -96 324 -33 299 -45 342 -102 372 -37 19 -124 22 -155 6
-27 -15 -33 -35 -84 -267 -66 -306 -105 -409 -172 -459 l-27 -20 -25 25 c-35
34 -45 106 -45 326 0 125 6 230 20 338 15 117 18 161 10 171 -7 7 -33 21 -58
31 -38 15 -73 18 -187 16 -318 -3 -435 -43 -1138 -386 -565 -276 -692 -322
-866 -315 -83 3 -103 8 -149 33 -147 80 -185 251 -89 391 34 49 129 123 158
124 9 0 24 -17 34 -41 26 -56 74 -91 135 -97 44 -4 52 -2 80 26 23 24 30 39
30 70 0 75 -58 112 -177 112 -118 0 -223 -49 -310 -144 -78 -86 -97 -133 -101
-259 -6 -147 2 -185 50 -258 79 -118 181 -160 388 -160 250 -1 363 49 880 383
304 197 441 277 574 336 117 51 332 115 363 107 29 -7 31 -20 38 -320 8 -355
32 -493 105 -593 63 -87 180 -123 264 -82 82 39 184 200 245 385 16 50 31 83
34 75 3 -8 13 -48 22 -88 33 -140 107 -257 182 -288 46 -20 140 -17 189 5 58
27 128 112 185 226 27 55 49 105 49 111 0 23 32 37 108 44 42 5 85 11 94 15
13 5 19 1 22 -17 27 -121 43 -174 76 -243 85 -178 236 -273 389 -245 112 21
204 112 285 282 22 48 44 88 49 88 4 0 7 -14 7 -30 0 -85 61 -299 126 -438 81
-177 264 -260 410 -187 148 74 262 219 425 538 l96 188 12 -54 c19 -88 75
-192 138 -259 71 -74 119 -103 200 -119 161 -33 284 56 409 294 29 57 55 95
57 87 3 -8 12 -44 22 -80 59 -229 243 -359 431 -305 50 14 69 27 130 89 51 51
81 93 107 147 40 83 55 99 107 119 54 21 102 56 135 97 l30 38 11 -161 c6 -89
17 -184 23 -212 20 -82 81 -122 187 -122 76 0 86 14 108 140 36 217 89 395
161 546 44 91 96 160 114 150 14 -9 27 -79 56 -293 36 -272 55 -327 126 -364
46 -23 97 -25 126 -4 27 19 36 48 68 214 32 163 84 347 121 424 39 84 91 120
113 78 6 -10 15 -124 21 -253 16 -378 32 -441 134 -555 77 -85 174 -115 260
-79 69 29 160 153 212 288 l27 71 22 -54 c43 -107 78 -164 131 -215 75 -74
139 -97 269 -96 224 0 380 62 880 347 469 267 745 390 935 417 107 15 231 -1
267 -34 38 -35 55 -76 55 -129 0 -97 -66 -182 -193 -247 -59 -30 -64 -32 -71
-15 -4 10 -14 35 -22 56 -12 31 -26 43 -70 63 -63 29 -92 25 -136 -16 -43 -40
-42 -90 3 -134 27 -27 42 -34 93 -39 239 -25 461 141 505 377 19 103 -8 187
-82 249 -58 51 -117 68 -242 74 -181 9 -349 -30 -562 -131 -154 -74 -258 -140
-558 -359 -389 -283 -515 -360 -644 -388 -161 -36 -257 76 -278 326 l-7 80 56
28 c69 33 139 96 174 156 26 44 27 53 27 178 l0 131 -31 38 c-38 48 -105 84
-155 84 -73 0 -164 -37 -222 -90 -86 -79 -134 -185 -162 -362 -37 -234 -137
-487 -212 -535 -20 -13 -23 -12 -38 11 -21 32 -34 172 -35 376 -1 368 -38 507
-154 565 -67 33 -146 34 -207 2 -84 -45 -198 -223 -245 -386 -23 -79 -34 -76
-34 9 0 134 -43 311 -89 362 -52 58 -162 47 -248 -26 -46 -39 -120 -154 -160
-249 -19 -45 -54 -152 -78 -237 l-43 -155 -6 70 c-15 157 -35 229 -81 284 -32
37 -77 51 -166 51 l-67 0 -4 -72 c-4 -89 -45 -184 -108 -252 -79 -86 -92 -61
-110 211 -19 290 -69 379 -229 414 -119 25 -290 -32 -357 -119 -52 -68 -100
-176 -134 -302 -37 -138 -67 -212 -125 -309 -83 -142 -177 -241 -243 -258
-110 -27 -215 268 -183 518 14 112 54 236 95 298 62 92 85 38 59 -134 -10 -60
-17 -137 -18 -170 l0 -60 68 -34 c56 -29 72 -33 95 -25 36 12 60 64 72 155 12
99 -2 195 -42 281 -61 132 -153 183 -289 158 -173 -32 -256 -132 -319 -386
-35 -143 -78 -252 -172 -438 -88 -173 -173 -300 -240 -361 -192 -173 -264 -91
-290 329 -7 116 -8 250 -3 340 7 135 9 151 29 167 120 100 173 149 227 211
161 184 356 489 494 773 94 192 141 312 181 465 25 92 28 123 29 255 0 136 -2
155 -23 201 -29 64 -72 106 -137 135 -41 19 -71 23 -170 25 -66 1 -131 0 -145
-3z m196 -68 c54 -16 106 -61 124 -110 20 -52 24 -230 6 -335 -67 -412 -330
-922 -688 -1337 -74 -85 -104 -111 -116 -99 -12 13 99 701 153 946 98 445 206
729 321 850 46 49 120 100 145 100 3 0 28 -7 55 -15z m-1376 -1846 c0 -57 -6
-96 -24 -143 -23 -65 -68 -136 -87 -136 -14 0 -11 123 7 207 8 41 26 100 40
131 24 54 25 55 44 37 17 -15 20 -31 20 -96z m2756 90 c21 -23 31 -127 20
-203 -6 -39 -12 -47 -43 -63 -61 -30 -78 -63 -78 -151 0 -71 3 -83 39 -145 37
-66 39 -71 33 -138 -13 -153 -101 -246 -159 -169 -58 78 -86 385 -53 576 24
137 78 238 154 290 44 29 62 30 87 3z m2718 -11 c12 -47 5 -148 -14 -211 -15
-47 -33 -79 -65 -114 l-44 -48 -1 45 c-1 173 96 431 124 328z"/>
</g>
</svg>
